<svg width="256" height="64" viewBox="0 0 256 64" fill="none" xmlns="http://www.w3.org/2000/svg">
<path d="M219.424 31.8526C224.435 31.8526 238.055 26.2225 244.563 19.7372C251.071 13.2521 253.459 6.09219 249.365 2.0125C245.27 -2.06719 238.079 0.317876 231.571 6.80314C225.062 13.2883 219.412 26.8603 219.412 31.8526" fill="#5E0526"/>
<path d="M221.981 31.8526C221.981 26.8603 216.332 13.2883 209.824 6.80314C203.314 0.317876 196.129 -2.06719 192.035 2.0125C187.941 6.09219 190.335 13.2521 196.843 19.7372C203.351 26.2225 216.972 31.8526 221.981 31.8526Z" fill="#5E0526"/>
<path d="M221.981 31.1474C216.972 31.1474 203.351 36.7775 196.843 43.2628C190.335 49.7479 187.941 56.9078 192.035 60.9875C196.129 65.0672 203.314 62.6821 209.824 56.197C216.332 49.7118 221.981 36.1397 221.981 31.1474Z" fill="#5E0526"/>
<path d="M219.424 31.1474C219.424 36.1397 225.075 49.7118 231.583 56.197C238.091 62.6821 245.276 65.0672 249.371 60.9875C253.465 56.9078 251.071 49.7479 244.563 43.2628C238.055 36.7775 224.435 31.1474 219.424 31.1474Z" fill="#5E0526"/>
<path d="M48.6149 39.8208C48.6149 24.487 43.4854 1.54543 33.5844 1.54543C27.0231 1.54543 23.5638 11.1738 23.5638 23.2981C23.5638 38.751 28.6934 61.4549 38.833 61.4549C44.559 61.4549 48.6149 53.8472 48.6149 39.8208ZM4 31.5001C4 12.4811 16.7642 0 36.2086 0C55.5338 0 68.298 12.4811 68.298 31.5001C68.298 50.5189 55.5338 63 36.2086 63C16.7642 63 4 50.5189 4 31.5001Z" fill="#5E0526"/>
<path d="M71.2806 58.1264C71.2806 57.1755 71.5193 55.9869 72.235 54.9171L106.71 2.73408H93.2302C84.6412 2.73408 79.8696 9.7472 77.4839 16.2849C76.1716 19.7322 75.2173 22.3473 73.6665 22.3473C72.7121 22.3473 72.1156 21.753 72.1156 20.6832V5.7058C72.1156 2.8529 73.905 1.18881 76.7679 1.18881H121.86C124.604 1.18881 126.154 2.61511 126.154 4.8736C126.154 5.82462 125.916 7.01327 125.2 8.08311L90.725 60.2661H105.637C114.226 60.2661 119.236 52.8962 121.383 46.2397C122.695 42.4359 123.649 39.8208 125.2 39.8208C126.154 39.8208 126.751 40.534 126.751 41.6039V57.2943C126.751 60.1473 124.962 61.8113 122.099 61.8113H75.5752C72.8314 61.8113 71.2806 60.385 71.2806 58.1264Z" fill="#5E0526"/>
<path d="M150.489 33.0453C163.731 32.0945 168.262 25.7944 168.262 16.7605C168.262 8.3209 165.042 1.42661 159.793 1.42661C152.875 1.42661 149.177 11.2926 149.177 21.9905C149.177 25.4378 149.654 29.2416 150.489 33.0453ZM129.613 31.5001C129.613 12.6001 142.377 0 161.582 0C175.897 0 185.919 6.77548 185.919 16.6416C185.919 28.885 170.768 33.7586 150.847 34.353C153.471 43.7436 159.078 52.1831 169.456 52.1831C177.688 52.1831 182.459 47.5473 184.368 45.2887C185.202 44.3378 185.56 43.9812 186.038 43.9812C186.515 43.9812 186.873 44.4566 186.873 46.002C186.873 53.4906 177.569 63 160.986 63C142.258 63 129.613 50.5189 129.613 31.5001Z" fill="#5E0526"/>
</svg>
